<svg xmlns="http://www.w3.org/2000/svg" viewBox="0 0 159.35 31.96"><defs><style>.cls-1{fill:#e21818;}.cls-1,.cls-2{fill-rule:evenodd;}.cls-2{fill:#fff;}</style></defs><g id="Camada_2" data-name="Camada 2"><g id="Camada_1-2" data-name="Camada 1"><path class="cls-1" d="M15.82.31H143.53a15.82,15.82,0,0,1,0,31.64H15.82a15.82,15.82,0,0,1,0-31.64"/><polygon class="cls-2" points="101.55 28.6 106.12 28.6 106.12 15.48 109.89 28.6 115.53 28.61 115.53 3.66 110.97 3.66 110.97 14.9 107.81 3.66 101.55 3.66 101.55 28.6"/><polygon class="cls-2" points="127.27 14.83 124.11 3.66 117.86 3.66 117.86 28.61 122.42 28.61 122.42 15.44 126.19 28.61 131.84 28.61 131.8 3.66 127.29 3.66 127.27 14.83"/><path class="cls-2" d="M140,6.91c-.76.2-.57.83-.57,1.95V24c0,.4,0,.86.2,1.08s1.52.53,1.58-.53V8.15c0-.4,0-.85-.2-1.07a1.19,1.19,0,0,0-1-.17m-.72-3.42c-6.1.55-5.2,4.26-5.2,9v9.43c0,1.37-.16,3.24.4,4.37,1.18,2.37,4.44,2.68,6.9,2.47,2.71-.24,5-1.52,5.18-4.24.08-1.51,0-3.22,0-4.75V10.35c0-2.63.34-5.32-3-6.47a11,11,0,0,0-4.27-.39"/><path class="cls-2" d="M99.23,3.58l-5.51,0V23.26c0,1,.28,2-.92,1.95s-.89-.95-.89-1.95c0-1.84.08-19.3,0-19.71H86.44c-.08.44,0,18.24,0,19.66a5.49,5.49,0,0,0,.63,3.31c1.85,2.65,9,3.18,11.45,0a4.67,4.67,0,0,0,.73-3.17Z"/><path class="cls-2" d="M74.18,28.59H84.46V25.39H79.67c0-.14.08-21.32,0-21.72H74.2Z"/><path class="cls-2" d="M61.32,28.6H72.07V25.38H66.82V16.64h4.66v-3H66.83c0-1.92-.07-4.94,0-6.72H72V3.66H61.32Z"/><path class="cls-2" d="M52.13,13.73c2,.19,1.52-1.94,1.52-3.42,0-1.64.45-3.54-1.53-3.41Zm0,11.65a1.24,1.24,0,0,0,1.52-1.28V17.76a1.24,1.24,0,0,0-1.53-1.27ZM46.63,3.86V28.62h6.92a6.06,6.06,0,0,0,4.08-1.44C58.81,26.08,59,25.1,59,23c0-1.23.15-4.38-.17-5.33-.65-1.92-2.53-2.1-3.13-2.43,1.76-.74,3.14-1.53,3.14-3.7V8.05c0-2.53-1.66-3.7-3.87-4.19a72.74,72.74,0,0,0-8.34-.19Z"/><path class="cls-2" d="M41.29.1a17.17,17.17,0,0,0-6.65,4.23,17.4,17.4,0,0,0-4.2,6.72c-1.16,3.45-1,6.12-1,9.93,0,3.65,0,7.32,0,11h2.21c-.06-.87,0-4.18,0-5.31V21.36c0-3.58-.17-6.5.73-9.84A17.84,17.84,0,0,1,38.69,2,13.39,13.39,0,0,1,42.1.09L42,.05a1,1,0,0,0-.72.05"/><path class="cls-2" d="M45.23.08a18.34,18.34,0,0,0-6.46,4,18.08,18.08,0,0,0-4.15,6.28,17.38,17.38,0,0,0-1.19,5.75l0,3.95c0,3.85-.08,8.11,0,11.86h2.14c0-1.52-.08-15.82.08-16.06a19,19,0,0,1,1-5.53A17.67,17.67,0,0,1,42,2.54,14.42,14.42,0,0,1,46,.1a1.05,1.05,0,0,0-.8,0"/><path class="cls-2" d="M25.44,16.22c.12.27,0,6.94,0,7.82V32h2.15l0-16a17,17,0,0,0-1.23-5.69,17.52,17.52,0,0,0-2.53-4.39,17.17,17.17,0,0,0-3.49-3.38A17,17,0,0,0,15.83.08a1.62,1.62,0,0,0-.82,0c.34.18.77.34,1.13.52a15.11,15.11,0,0,1,3,2,17.86,17.86,0,0,1,5.31,8,19.23,19.23,0,0,1,1,5.66"/><path class="cls-2" d="M12.08.53A13.68,13.68,0,0,1,15,2.38,17.87,17.87,0,0,1,20.66,11a18.5,18.5,0,0,1,.84,5.56c.18.25,0,13.72.06,15.35H23.7V16.5a17,17,0,0,0-1.06-5.74,19.3,19.3,0,0,0-3.5-5.82,4.57,4.57,0,0,1-.43-.45A18.21,18.21,0,0,0,12.64.37a1.39,1.39,0,0,0-.3,0c-.21,0-.15,0-.26.13"/></g></g></svg>