<svg xmlns="http://www.w3.org/2000/svg" xmlns:xlink="http://www.w3.org/1999/xlink" viewBox="0 0 166.16 548.22"><defs><style>.cls-1{fill:none;}.cls-2{clip-path:url(#clip-path);}.cls-3{fill:#fff;fill-rule:evenodd;}</style><clipPath id="clip-path" transform="translate(-22.42 -17.95)"><rect class="cls-1" width="199.13" height="372.18"/></clipPath></defs><g id="Camada_2" data-name="Camada 2"><g id="Camada_1-2" data-name="Camada 1"><g class="cls-2"><path class="cls-3" d="M165.38,18.42c-11.12,2.91-24.79,12.91-32.56,20.71a85.38,85.38,0,0,0-20.54,32.92c-5.69,16.88-4.8,29.92-4.8,48.56,0,17.91-.11,373.47,0,444.16l10.84,0c-.32-57-.06-410.88-.06-416.39V122.52c0-17.54-.83-31.83,3.55-48.19,5-18.74,16.61-35.9,30.84-46.52,4-3,11.17-7.69,16.71-9.43l-.44-.2a4.83,4.83,0,0,0-3.55.24" transform="translate(-22.42 -17.95)"/><path class="cls-3" d="M184.7,18.36c-9.81,2.8-24.16,12.13-31.64,19.67a88.07,88.07,0,0,0-20.31,30.72c-2.55,6.49-6.63,21.67-5.81,28.14l-.11,19.36c0,18.82-.39,377.3,0,448.45h10.49c0-60.27-.39-467.85.41-469.05-.43-7.63,2.9-20.38,5.13-27A86.63,86.63,0,0,1,168.7,30.39c3.89-3.3,13.66-10.24,19.89-12a5.23,5.23,0,0,0-3.89-.05" transform="translate(-22.42 -17.95)"/><path class="cls-3" d="M87.79,141.26c.63,1.33.27,34,.27,38.25V566.17H98.57L98.5,139.91c.54-7.52-3.49-21.54-6-27.82A85.38,85.38,0,0,0,80.06,90.58C74.4,83.66,70,79.18,63,74c-5.42-4-14.57-9.51-22.2-11.75a7.88,7.88,0,0,0-4-.13c1.66.9,3.74,1.65,5.53,2.54a75.27,75.27,0,0,1,14.62,9.76c11.68,9.65,21,23.92,26,39.11,2,5.89,5.63,21.07,4.85,27.7" transform="translate(-22.42 -17.95)"/><path class="cls-3" d="M22.42,64.46c4.18,1.63,10.5,6.11,14.11,9.05a87.61,87.61,0,0,1,27.9,42.4c1.92,6.7,4.94,19.85,4.11,27.22.86,1.2,0,362.25.26,423H79.29l.06-423.56c.59-8.18-2.66-21.07-5.2-28.06-3-8.15-10.89-22.61-17.14-28.47a26.13,26.13,0,0,1-2.09-2.25c-6.44-7.47-21.1-17-29.75-20.16a10.24,10.24,0,0,0-1.48.17c-1,.23-.75.08-1.27.63" transform="translate(-22.42 -17.95)"/></g></g></g></svg>